<svg width="1085" height="344" viewBox="0 0 1085 344" fill="none" xmlns="http://www.w3.org/2000/svg">
<g filter="url(#filter0_d_4552_1184)">
<path d="M149.603 335.624L4 253.431V88.55L75.0382 128.656V212.83V213.325L149.351 255.412L149.603 335.624Z" fill="#6E0F68"/>
<path d="M156.153 335.377L301 253.431V173.1V173.094L230.969 212.83L156.153 255.412V335.377Z" fill="url(#paint0_linear_4552_1184)" fill-opacity="0.96"/>
<path d="M230.969 212.83L301 173.094V82.923L230.969 126.741V212.83Z" fill="url(#paint1_linear_4552_1184)"/>
<path d="M230.969 126.741L301 82.923L157.373 0L83.3365 42.7451L153.589 83.3051L230.969 126.741Z" fill="url(#paint2_linear_4552_1184)" fill-opacity="0.96"/>
<path d="M4 88.55L75.0382 128.656L153.589 83.3051L83.3365 42.7451L4 88.55Z" fill="url(#paint3_linear_4552_1184)"/>
<path d="M230.969 212.83V126.741L153.589 83.3051L75.0382 128.656V212.83L153.589 167.479L230.969 212.83Z" fill="url(#paint4_linear_4552_1184)"/>
</g>
<path d="M351 244V100H365.7V168L431.4 100H450.2L383.1 169.5L455.7 244H436.5L365.7 172V244H351ZM471.75 115.5V99H486.45V115.5H471.75ZM471.75 244V136H486.45V244H471.75ZM594.43 244V188.9C594.43 182.9 593.863 177.4 592.73 172.4C591.596 167.333 589.763 162.933 587.23 159.2C584.763 155.4 581.53 152.467 577.53 150.4C573.596 148.333 568.796 147.3 563.13 147.3C557.93 147.3 553.33 148.2 549.33 150C545.396 151.8 542.063 154.4 539.33 157.8C536.663 161.133 534.63 165.2 533.23 170C531.83 174.8 531.13 180.267 531.13 186.4L520.73 184.1C520.73 173.033 522.663 163.733 526.53 156.2C530.396 148.667 535.73 142.967 542.53 139.1C549.33 135.233 557.13 133.3 565.93 133.3C572.396 133.3 578.03 134.3 582.83 136.3C587.696 138.3 591.796 141 595.13 144.4C598.53 147.8 601.263 151.7 603.33 156.1C605.396 160.433 606.896 165.067 607.83 170C608.763 174.867 609.23 179.733 609.23 184.6V244H594.43ZM516.33 244V136H529.63V162.6H531.13V244H516.33ZM635.18 244V100H678.88C680.413 100 683.013 100.033 686.68 100.1C690.413 100.167 693.98 100.433 697.38 100.9C708.313 102.433 717.446 106.5 724.78 113.1C732.113 119.7 737.613 128.1 741.28 138.3C744.946 148.5 746.78 159.733 746.78 172C746.78 184.267 744.946 195.5 741.28 205.7C737.613 215.9 732.113 224.3 724.78 230.9C717.446 237.5 708.313 241.567 697.38 243.1C694.046 243.5 690.48 243.767 686.68 243.9C682.88 243.967 680.28 244 678.88 244H635.18ZM650.38 229.9H678.88C681.613 229.9 684.546 229.833 687.68 229.7C690.88 229.5 693.613 229.167 695.88 228.7C704.28 227.233 711.046 223.833 716.18 218.5C721.38 213.167 725.18 206.5 727.58 198.5C729.98 190.433 731.18 181.6 731.18 172C731.18 162.333 729.98 153.467 727.58 145.4C725.18 137.333 721.38 130.667 716.18 125.4C710.98 120.133 704.213 116.767 695.88 115.3C693.613 114.833 690.846 114.533 687.58 114.4C684.38 114.2 681.48 114.1 678.88 114.1H650.38V229.9ZM769.555 244V136H782.755V162L780.155 158.6C781.355 155.4 782.921 152.467 784.855 149.8C786.788 147.067 788.888 144.833 791.155 143.1C793.955 140.633 797.221 138.767 800.955 137.5C804.688 136.167 808.455 135.4 812.255 135.2C816.055 134.933 819.521 135.2 822.655 136V149.8C818.721 148.8 814.421 148.567 809.755 149.1C805.088 149.633 800.788 151.5 796.855 154.7C793.255 157.5 790.555 160.867 788.755 164.8C786.955 168.667 785.755 172.8 785.155 177.2C784.555 181.533 784.255 185.833 784.255 190.1V244H769.555ZM868.423 247C860.29 247 853.457 245.533 847.923 242.6C842.457 239.667 838.357 235.767 835.623 230.9C832.89 226.033 831.523 220.733 831.523 215C831.523 209.133 832.69 204.133 835.023 200C837.423 195.8 840.657 192.367 844.723 189.7C848.857 187.033 853.623 185 859.023 183.6C864.49 182.267 870.523 181.1 877.123 180.1C883.79 179.033 890.29 178.133 896.623 177.4C903.023 176.6 908.623 175.833 913.423 175.1L908.223 178.3C908.423 167.633 906.357 159.733 902.023 154.6C897.69 149.467 890.157 146.9 879.423 146.9C872.023 146.9 865.757 148.567 860.623 151.9C855.557 155.233 851.99 160.5 849.923 167.7L835.623 163.5C838.09 153.833 843.057 146.333 850.523 141C857.99 135.667 867.69 133 879.623 133C889.49 133 897.857 134.867 904.723 138.6C911.657 142.267 916.557 147.6 919.423 154.6C920.757 157.733 921.623 161.233 922.023 165.1C922.423 168.967 922.623 172.9 922.623 176.9V244H909.523V216.9L913.323 218.5C909.657 227.767 903.957 234.833 896.223 239.7C888.49 244.567 879.223 247 868.423 247ZM870.123 234.3C876.99 234.3 882.99 233.067 888.123 230.6C893.257 228.133 897.39 224.767 900.523 220.5C903.657 216.167 905.69 211.3 906.623 205.9C907.423 202.433 907.857 198.633 907.923 194.5C907.99 190.3 908.023 187.167 908.023 185.1L913.623 188C908.623 188.667 903.19 189.333 897.323 190C891.523 190.667 885.79 191.433 880.123 192.3C874.523 193.167 869.457 194.2 864.923 195.4C861.857 196.267 858.89 197.5 856.023 199.1C853.157 200.633 850.79 202.7 848.923 205.3C847.123 207.9 846.223 211.133 846.223 215C846.223 218.133 846.99 221.167 848.523 224.1C850.123 227.033 852.657 229.467 856.123 231.4C859.657 233.333 864.323 234.3 870.123 234.3ZM967.75 244L934.75 135.9L949.45 136L975.05 219.9L1000.75 136H1014.15L1039.85 219.9L1065.65 136H1080.25L1047.25 244H1034.45L1007.45 158L980.55 244H967.75Z" fill="url(#paint5_linear_4552_1184)"/>
<defs>
<filter id="filter0_d_4552_1184" x="0" y="0" width="305" height="343.624" filterUnits="userSpaceOnUse" color-interpolation-filters="sRGB">
<feFlood flood-opacity="0" result="BackgroundImageFix"/>
<feColorMatrix in="SourceAlpha" type="matrix" values="0 0 0 0 0 0 0 0 0 0 0 0 0 0 0 0 0 0 127 0" result="hardAlpha"/>
<feOffset dy="4"/>
<feGaussianBlur stdDeviation="2"/>
<feComposite in2="hardAlpha" operator="out"/>
<feColorMatrix type="matrix" values="0 0 0 0 0 0 0 0 0 0 0 0 0 0 0 0 0 0 0.25 0"/>
<feBlend mode="normal" in2="BackgroundImageFix" result="effect1_dropShadow_4552_1184"/>
<feBlend mode="normal" in="SourceGraphic" in2="effect1_dropShadow_4552_1184" result="shape"/>
</filter>
<linearGradient id="paint0_linear_4552_1184" x1="152.5" y1="0" x2="152.5" y2="335.624" gradientUnits="userSpaceOnUse">
<stop offset="0.341346" stop-color="#6E0F68"/>
<stop offset="1" stop-color="#D41EC8"/>
</linearGradient>
<linearGradient id="paint1_linear_4552_1184" x1="152.5" y1="0" x2="152.5" y2="335.624" gradientUnits="userSpaceOnUse">
<stop offset="0.389423" stop-color="#6E0F68"/>
<stop offset="1" stop-color="#D41EC8"/>
</linearGradient>
<linearGradient id="paint2_linear_4552_1184" x1="152.5" y1="0" x2="152.5" y2="335.624" gradientUnits="userSpaceOnUse">
<stop stop-color="#D41EC8"/>
<stop offset="0.451923" stop-color="#6E0F68"/>
</linearGradient>
<linearGradient id="paint3_linear_4552_1184" x1="152.5" y1="0" x2="152.5" y2="335.624" gradientUnits="userSpaceOnUse">
<stop stop-color="#D41EC8"/>
<stop offset="0.389423" stop-color="#6E0F68"/>
</linearGradient>
<linearGradient id="paint4_linear_4552_1184" x1="152.5" y1="0" x2="152.5" y2="335.624" gradientUnits="userSpaceOnUse">
<stop offset="0.932692" stop-color="#6E0F68"/>
<stop offset="1" stop-color="#D41EC8"/>
</linearGradient>
<linearGradient id="paint5_linear_4552_1184" x1="711" y1="31" x2="711" y2="304" gradientUnits="userSpaceOnUse">
<stop offset="0.9999" stop-color="white"/>
<stop offset="1" stop-color="#C27AC5"/>
</linearGradient>
</defs>
</svg>
